<mxfile host="app.diagrams.net" modified="2024-04-24T18:00:04.539Z" agent="Mozilla/5.0 (Windows NT 10.0; Win64; x64) AppleWebKit/537.36 (KHTML, like Gecko) Chrome/124.0.0.0 Safari/537.36" etag="AG6nGkh6DfgD2AlwCavc" version="24.2.5" type="github">
  <diagram id="f106602c-feb2-e66a-4537-3a34d633f6aa" name="Page-1">
    <mxGraphModel dx="1843" dy="851" grid="1" gridSize="10" guides="1" tooltips="1" connect="1" arrows="1" fold="1" page="1" pageScale="1" pageWidth="1169" pageHeight="827" background="none" math="0" shadow="0">
      <root>
        <mxCell id="0" />
        <mxCell id="1" parent="0" />
        <mxCell id="Lif8JBEafslfNm7ranTe-1" value="" style="fillColor=#F6F6F6;strokeColor=none;shadow=0;gradientColor=none;fontSize=14;align=left;spacing=10;fontColor=#717171;9E9E9E;verticalAlign=top;spacingTop=-4;fontStyle=0;spacingLeft=40;html=1;" parent="1" vertex="1">
          <mxGeometry x="340" y="180" width="540" height="448" as="geometry" />
        </mxCell>
        <mxCell id="tdb2UJb3kU6A1UGs4z5R-8" style="edgeStyle=orthogonalEdgeStyle;rounded=0;orthogonalLoop=1;jettySize=auto;html=1;exitX=1;exitY=1;exitDx=0;exitDy=0;elbow=vertical;entryX=1;entryY=1;entryDx=0;entryDy=0;" edge="1" parent="Lif8JBEafslfNm7ranTe-1" source="cEKSAHbCaNsN3OeEtTBm-1" target="cEKSAHbCaNsN3OeEtTBm-1">
          <mxGeometry relative="1" as="geometry" />
        </mxCell>
        <mxCell id="tdb2UJb3kU6A1UGs4z5R-9" style="edgeStyle=orthogonalEdgeStyle;rounded=0;orthogonalLoop=1;jettySize=auto;html=1;exitX=0.75;exitY=1;exitDx=0;exitDy=0;" edge="1" parent="Lif8JBEafslfNm7ranTe-1" source="cEKSAHbCaNsN3OeEtTBm-1" target="cEKSAHbCaNsN3OeEtTBm-3">
          <mxGeometry relative="1" as="geometry" />
        </mxCell>
        <mxCell id="tdb2UJb3kU6A1UGs4z5R-11" style="edgeStyle=orthogonalEdgeStyle;rounded=0;orthogonalLoop=1;jettySize=auto;html=1;exitX=1;exitY=0.5;exitDx=0;exitDy=0;entryX=0;entryY=0.5;entryDx=0;entryDy=0;" edge="1" parent="Lif8JBEafslfNm7ranTe-1" source="cEKSAHbCaNsN3OeEtTBm-1" target="cEKSAHbCaNsN3OeEtTBm-7">
          <mxGeometry relative="1" as="geometry" />
        </mxCell>
        <mxCell id="cEKSAHbCaNsN3OeEtTBm-1" value="Controllers" style="strokeColor=#dddddd;shadow=1;strokeWidth=1;rounded=1;absoluteArcSize=1;arcSize=2;" parent="Lif8JBEafslfNm7ranTe-1" vertex="1">
          <mxGeometry x="19" y="260" width="191" height="60" as="geometry" />
        </mxCell>
        <mxCell id="tdb2UJb3kU6A1UGs4z5R-12" style="edgeStyle=orthogonalEdgeStyle;rounded=0;orthogonalLoop=1;jettySize=auto;html=1;exitX=0;exitY=0.75;exitDx=0;exitDy=0;entryX=1;entryY=0.75;entryDx=0;entryDy=0;" edge="1" parent="Lif8JBEafslfNm7ranTe-1" source="cEKSAHbCaNsN3OeEtTBm-7" target="cEKSAHbCaNsN3OeEtTBm-1">
          <mxGeometry relative="1" as="geometry" />
        </mxCell>
        <mxCell id="cEKSAHbCaNsN3OeEtTBm-7" value="Models" style="strokeColor=#dddddd;shadow=1;strokeWidth=1;rounded=1;absoluteArcSize=1;arcSize=2;" parent="Lif8JBEafslfNm7ranTe-1" vertex="1">
          <mxGeometry x="340" y="260" width="185" height="60" as="geometry" />
        </mxCell>
        <mxCell id="tdb2UJb3kU6A1UGs4z5R-4" value="" style="shape=image;html=1;verticalAlign=top;verticalLabelPosition=bottom;labelBackgroundColor=#ffffff;imageAspect=0;aspect=fixed;image=https://cdn0.iconfinder.com/data/icons/long-shadow-web-icons/512/javascript-128.png" vertex="1" parent="cEKSAHbCaNsN3OeEtTBm-7">
          <mxGeometry x="130" y="5" width="50" height="50" as="geometry" />
        </mxCell>
        <mxCell id="tdb2UJb3kU6A1UGs4z5R-13" style="edgeStyle=orthogonalEdgeStyle;rounded=0;orthogonalLoop=1;jettySize=auto;html=1;exitX=0.25;exitY=0;exitDx=0;exitDy=0;entryX=0.25;entryY=1;entryDx=0;entryDy=0;" edge="1" parent="Lif8JBEafslfNm7ranTe-1" source="cEKSAHbCaNsN3OeEtTBm-3" target="tdb2UJb3kU6A1UGs4z5R-3">
          <mxGeometry relative="1" as="geometry" />
        </mxCell>
        <mxCell id="tdb2UJb3kU6A1UGs4z5R-14" style="edgeStyle=orthogonalEdgeStyle;rounded=0;orthogonalLoop=1;jettySize=auto;html=1;exitX=0.75;exitY=0;exitDx=0;exitDy=0;entryX=0.25;entryY=1;entryDx=0;entryDy=0;" edge="1" parent="Lif8JBEafslfNm7ranTe-1" source="cEKSAHbCaNsN3OeEtTBm-3" target="cEKSAHbCaNsN3OeEtTBm-7">
          <mxGeometry relative="1" as="geometry" />
        </mxCell>
        <mxCell id="cEKSAHbCaNsN3OeEtTBm-3" value="Views" style="strokeColor=#dddddd;shadow=1;strokeWidth=1;rounded=1;absoluteArcSize=1;arcSize=2;" parent="Lif8JBEafslfNm7ranTe-1" vertex="1">
          <mxGeometry x="180" y="361" width="185" height="60" as="geometry" />
        </mxCell>
        <mxCell id="tdb2UJb3kU6A1UGs4z5R-3" value="" style="shape=image;html=1;verticalAlign=top;verticalLabelPosition=bottom;labelBackgroundColor=#ffffff;imageAspect=0;aspect=fixed;image=https://cdn0.iconfinder.com/data/icons/long-shadow-web-icons/512/javascript-128.png" vertex="1" parent="Lif8JBEafslfNm7ranTe-1">
          <mxGeometry x="150" y="265.5" width="49" height="49" as="geometry" />
        </mxCell>
        <mxCell id="tdb2UJb3kU6A1UGs4z5R-5" value="" style="shape=image;html=1;verticalAlign=top;verticalLabelPosition=bottom;labelBackgroundColor=#ffffff;imageAspect=0;aspect=fixed;image=https://cdn0.iconfinder.com/data/icons/long-shadow-web-icons/512/angular-symbol-128.png" vertex="1" parent="Lif8JBEafslfNm7ranTe-1">
          <mxGeometry x="40" y="361" width="68" height="68" as="geometry" />
        </mxCell>
        <mxCell id="tdb2UJb3kU6A1UGs4z5R-6" value="" style="dashed=0;outlineConnect=0;html=1;align=center;labelPosition=center;verticalLabelPosition=bottom;verticalAlign=top;shape=mxgraph.webicons.html5;gradientColor=#DFDEDE" vertex="1" parent="Lif8JBEafslfNm7ranTe-1">
          <mxGeometry x="190" y="365.5" width="55" height="51" as="geometry" />
        </mxCell>
        <mxCell id="tdb2UJb3kU6A1UGs4z5R-7" value="" style="shape=image;html=1;verticalAlign=top;verticalLabelPosition=bottom;labelBackgroundColor=#ffffff;imageAspect=0;aspect=fixed;image=https://cdn0.iconfinder.com/data/icons/long-shadow-web-icons/512/css-128.png" vertex="1" parent="Lif8JBEafslfNm7ranTe-1">
          <mxGeometry x="310" y="367.75" width="46.5" height="46.5" as="geometry" />
        </mxCell>
        <mxCell id="tdb2UJb3kU6A1UGs4z5R-10" style="edgeStyle=orthogonalEdgeStyle;rounded=0;orthogonalLoop=1;jettySize=auto;html=1;exitX=0.25;exitY=1;exitDx=0;exitDy=0;entryX=0.556;entryY=-0.043;entryDx=0;entryDy=0;entryPerimeter=0;" edge="1" parent="Lif8JBEafslfNm7ranTe-1" source="cEKSAHbCaNsN3OeEtTBm-7" target="cEKSAHbCaNsN3OeEtTBm-3">
          <mxGeometry relative="1" as="geometry" />
        </mxCell>
        <mxCell id="tdb2UJb3kU6A1UGs4z5R-24" style="edgeStyle=orthogonalEdgeStyle;rounded=0;orthogonalLoop=1;jettySize=auto;html=1;exitX=0.75;exitY=0;exitDx=0;exitDy=0;entryX=0;entryY=0.5;entryDx=0;entryDy=0;" edge="1" parent="Lif8JBEafslfNm7ranTe-1" source="cEKSAHbCaNsN3OeEtTBm-5" target="tdb2UJb3kU6A1UGs4z5R-17">
          <mxGeometry relative="1" as="geometry" />
        </mxCell>
        <mxCell id="cEKSAHbCaNsN3OeEtTBm-5" value="Express.js  &#xa;(Rest API)" style="strokeColor=#dddddd;shadow=1;strokeWidth=1;rounded=1;absoluteArcSize=1;arcSize=2;" parent="Lif8JBEafslfNm7ranTe-1" vertex="1">
          <mxGeometry x="30" y="110" width="185" height="60" as="geometry" />
        </mxCell>
        <mxCell id="tdb2UJb3kU6A1UGs4z5R-17" value="Mongo DB &#xa; client driver" style="strokeColor=#dddddd;shadow=1;strokeWidth=1;rounded=1;absoluteArcSize=1;arcSize=2;" vertex="1" parent="Lif8JBEafslfNm7ranTe-1">
          <mxGeometry x="210" y="20" width="185" height="60" as="geometry" />
        </mxCell>
        <mxCell id="tdb2UJb3kU6A1UGs4z5R-21" value="" style="outlineConnect=0;dashed=0;verticalLabelPosition=bottom;verticalAlign=top;align=center;html=1;shape=mxgraph.aws3.android;fillColor=#8CC64F;gradientColor=none;" vertex="1" parent="Lif8JBEafslfNm7ranTe-1">
          <mxGeometry x="37.25" y="8" width="73.5" height="84" as="geometry" />
        </mxCell>
        <mxCell id="tdb2UJb3kU6A1UGs4z5R-22" value="" style="html=1;verticalLabelPosition=bottom;align=center;labelBackgroundColor=#ffffff;verticalAlign=top;strokeWidth=2;strokeColor=#0080F0;shadow=0;dashed=0;shape=mxgraph.ios7.icons.data;" vertex="1" parent="Lif8JBEafslfNm7ranTe-1">
          <mxGeometry x="430" y="80" width="84" height="90" as="geometry" />
        </mxCell>
        <mxCell id="tdb2UJb3kU6A1UGs4z5R-23" value="Mongo DB" style="text;html=1;align=center;verticalAlign=middle;resizable=0;points=[];autosize=1;strokeColor=none;fillColor=none;" vertex="1" parent="Lif8JBEafslfNm7ranTe-1">
          <mxGeometry x="434" y="180" width="80" height="30" as="geometry" />
        </mxCell>
        <mxCell id="tdb2UJb3kU6A1UGs4z5R-25" style="edgeStyle=orthogonalEdgeStyle;rounded=0;orthogonalLoop=1;jettySize=auto;html=1;exitX=0;exitY=0.75;exitDx=0;exitDy=0;entryX=0.807;entryY=-0.036;entryDx=0;entryDy=0;entryPerimeter=0;" edge="1" parent="Lif8JBEafslfNm7ranTe-1" source="tdb2UJb3kU6A1UGs4z5R-17" target="cEKSAHbCaNsN3OeEtTBm-5">
          <mxGeometry relative="1" as="geometry" />
        </mxCell>
        <mxCell id="tdb2UJb3kU6A1UGs4z5R-26" style="edgeStyle=orthogonalEdgeStyle;rounded=0;orthogonalLoop=1;jettySize=auto;html=1;exitX=1;exitY=0.5;exitDx=0;exitDy=0;entryX=0.049;entryY=0.183;entryDx=0;entryDy=0;entryPerimeter=0;" edge="1" parent="Lif8JBEafslfNm7ranTe-1" source="tdb2UJb3kU6A1UGs4z5R-17" target="tdb2UJb3kU6A1UGs4z5R-22">
          <mxGeometry relative="1" as="geometry" />
        </mxCell>
        <mxCell id="Lif8JBEafslfNm7ranTe-4" value="WebAplication&amp;nbsp;" style="fillColor=#4DA1F5;strokeColor=none;shadow=1;gradientColor=none;fontSize=14;align=left;spacingLeft=50;fontColor=#ffffff;html=1;" parent="1" vertex="1">
          <mxGeometry x="180" y="120" width="790" height="40" as="geometry" />
        </mxCell>
        <mxCell id="Lif8JBEafslfNm7ranTe-6" value="" style="strokeColor=#dddddd;fillColor=#ffffff;shadow=1;strokeWidth=1;rounded=1;absoluteArcSize=1;arcSize=2;labelPosition=center;verticalLabelPosition=middle;align=center;verticalAlign=bottom;spacingLeft=0;fontColor=#999999;fontSize=12;whiteSpace=wrap;spacingBottom=2;html=1;" parent="1" vertex="1">
          <mxGeometry x="240" y="280" width="70" height="70" as="geometry" />
        </mxCell>
        <mxCell id="Lif8JBEafslfNm7ranTe-8" style="edgeStyle=elbowEdgeStyle;rounded=0;elbow=vertical;html=1;labelBackgroundColor=none;startFill=1;startSize=4;endArrow=blockThin;endFill=1;endSize=4;jettySize=auto;orthogonalLoop=1;strokeColor=#4284F3;strokeWidth=2;fontSize=12;fontColor=#000000;align=left;dashed=0;exitX=1;exitY=0.5;exitDx=0;exitDy=0;" parent="1" edge="1">
          <mxGeometry relative="1" as="geometry">
            <mxPoint x="310" y="450" as="sourcePoint" />
            <mxPoint x="359" y="475" as="targetPoint" />
            <Array as="points">
              <mxPoint x="320" y="475" />
            </Array>
          </mxGeometry>
        </mxCell>
        <mxCell id="Lif8JBEafslfNm7ranTe-9" value="" style="strokeColor=#dddddd;fillColor=#ffffff;shadow=1;strokeWidth=1;rounded=1;absoluteArcSize=1;arcSize=2;labelPosition=center;verticalLabelPosition=middle;align=center;verticalAlign=bottom;spacingLeft=0;fontColor=#999999;fontSize=12;whiteSpace=wrap;spacingBottom=2;html=1;" parent="1" vertex="1">
          <mxGeometry x="240" y="430" width="70" height="70" as="geometry" />
        </mxCell>
        <mxCell id="Lif8JBEafslfNm7ranTe-10" value="" style="dashed=0;connectable=0;html=1;fillColor=#757575;strokeColor=none;shape=mxgraph.gcp2.laptop;part=1;" parent="Lif8JBEafslfNm7ranTe-9" vertex="1">
          <mxGeometry x="0.5" width="50" height="33" relative="1" as="geometry">
            <mxPoint x="-25" y="18.5" as="offset" />
          </mxGeometry>
        </mxCell>
        <mxCell id="tdb2UJb3kU6A1UGs4z5R-15" value="Client Side" style="text;html=1;align=center;verticalAlign=middle;resizable=0;points=[];autosize=1;strokeColor=none;fillColor=none;" vertex="1" parent="1">
          <mxGeometry x="235" y="510" width="80" height="30" as="geometry" />
        </mxCell>
        <mxCell id="tdb2UJb3kU6A1UGs4z5R-16" value="" style="image;aspect=fixed;perimeter=ellipsePerimeter;html=1;align=center;shadow=0;dashed=0;spacingTop=3;image=img/lib/active_directory/windows_server.svg;" vertex="1" parent="1">
          <mxGeometry x="254.5" y="290" width="41" height="50" as="geometry" />
        </mxCell>
        <mxCell id="tdb2UJb3kU6A1UGs4z5R-27" value="Server Side" style="text;html=1;align=center;verticalAlign=middle;resizable=0;points=[];autosize=1;strokeColor=none;fillColor=none;" vertex="1" parent="1">
          <mxGeometry x="230" y="360" width="90" height="30" as="geometry" />
        </mxCell>
      </root>
    </mxGraphModel>
  </diagram>
</mxfile>
